<?xml version="1.0" encoding="utf-8"?>
<!-- Generator: Adobe Illustrator 16.0.0, SVG Export Plug-In . SVG Version: 6.00 Build 0)  -->
<!DOCTYPE svg PUBLIC "-//W3C//DTD SVG 1.1//EN" "http://www.w3.org/Graphics/SVG/1.1/DTD/svg11.dtd">
<svg version="1.1" id="Layer_1" xmlns="http://www.w3.org/2000/svg" xmlns:xlink="http://www.w3.org/1999/xlink" x="0px" y="0px"
	 width="416.133px" height="154.712px" viewBox="0 0 416.133 154.712" enable-background="new 0 0 416.133 154.712"
	 xml:space="preserve">
<path fill="#121212" d="M416.133,140.542c-2.217-6.139-45.701-133.36-45.701-133.36c-1.115-3.257-4.615-7.178-10.025-7.178h-0.01
	h-38.325h-0.001c-5.003,0.001-8.741,3.161-10.169,7.329L288.036,76.98L264.165,7.32c0,0-2.377-7.316-10.07-7.316h-0.039h-38.281
	c0,0-7.242-0.412-10.159,7.233l-23.761,69.339L158.057,7.13c-1.297-4.25-5.473-7.126-10.024-7.126h-0.015h-38.412h-0.03v0.001
	c-5.488,0.014-8.947,3.527-10.359,7.506L75.543,76.595L51.85,7.452c-1.617-4.721-5.625-7.448-10.16-7.448H10.612
	c-7.541,0-12.45,7.411-9.958,14.312l45.616,133.119c1.199,3.498,4.629,7.277,10.174,7.277h0.003h38.278h0.101
	c4.68,0,8.27-3.066,9.834-6.814c0.744-1.783,12.243-35.318,24.098-70.001l23.877,69.677c1.721,4.496,5.547,7.139,10.131,7.139h0.002
	h38.22h0.028c4.935,0,8.986-3.477,10.051-7.113l23.811-69.482l23.75,69.311c0,0,2.145,7.285,10.082,7.285h0.002h38.638h0.041
	c3.99,0,8.459-2.516,10.027-7.207l23.778-69.383l23.834,69.557c1.393,4.064,5.443,7.033,10.002,7.033h31.129
	C414.129,154.712,418.348,146.681,416.133,140.542"/>
</svg>
